<svg width="601" height="601" viewBox="0 0 601 601" fill="none" xmlns="http://www.w3.org/2000/svg">
<g clip-path="url(#clip0_110_2)">
<rect width="601" height="601" fill="#D33847"/>
<mask id="mask0_110_2" style="mask-type:alpha" maskUnits="userSpaceOnUse" x="0" y="0" width="601" height="601">
<rect width="601" height="601" fill="#D33847"/>
</mask>
<g mask="url(#mask0_110_2)">
<rect x="128.837" y="459.542" width="29.9303" height="225.131" rx="5" transform="rotate(46 128.837 459.542)" fill="white" fill-opacity="0.5"/>
<rect x="99.6414" y="455.813" width="14" height="201" rx="5" transform="rotate(46 99.6414 455.813)" fill="white" fill-opacity="0.2"/>
<rect x="142.897" y="500.428" width="14" height="201" rx="5" transform="rotate(46 142.897 500.428)" fill="white" fill-opacity="0.2"/>
<path fill-rule="evenodd" clip-rule="evenodd" d="M126.629 288.637C125.751 288.867 124.973 289.374 124.382 290.064L71.779 352.256C71.1 353.064 70.7362 354.064 70.7273 355.092C70.7234 355.534 70.7829 355.961 70.9134 356.397C71.3431 357.84 72.4625 358.964 73.8959 359.395L143.69 380.381L152.583 370.33C155.839 366.649 159.362 363.214 163.123 360.052L173.013 351.736L165.965 362.566C163.284 366.684 160.304 370.6 157.048 374.28L147.507 385.064C147.385 399.305 150.885 411.964 158.023 422.559L132.544 447.674C129.839 450.548 131.792 452.572 134.602 455.446L154.248 475.387C156.956 478.303 158.797 480.111 161.611 477.29L189.23 450.122C195.367 452.434 210.094 456.501 232.45 453.411L246.172 443.257C250.066 440.376 254.164 437.782 258.434 435.495L270.174 429.205L260.727 438.594C257.291 442.008 253.612 445.168 249.718 448.049L238.388 456.433L262.897 525.469C263.398 526.887 264.581 527.949 266.039 528.301C267.497 528.662 269.032 528.249 270.131 527.223L329.596 471.564C330.289 470.914 330.755 470.072 330.936 469.133L344.802 395.255C361.009 381.47 377.426 365.411 393.63 347.508C486.915 244.424 501.412 163.334 501.754 124.176C501.865 111.506 500.416 104.413 500.309 103.888L500.305 103.867C499.925 102.1 498.515 100.745 496.741 100.421C492.152 99.5905 382.785 81.7381 239.023 223.118L239.002 223.138C238.289 223.866 219.858 242.654 199.997 268.902L126.629 288.637ZM303.291 234.616C326.663 211.648 359.694 207.368 377.075 225.054C394.456 242.741 389.599 275.692 366.228 298.66C342.855 321.628 309.824 325.909 292.443 308.222C275.062 290.535 279.919 257.584 303.291 234.616Z" fill="#FFFFFE"/>
<path fill-rule="evenodd" clip-rule="evenodd" d="M305.958 236.79C329.529 214.028 362.596 210.036 379.822 227.873C397.048 245.711 391.904 278.619 368.333 301.381C344.76 324.145 311.693 328.137 294.467 310.299C277.242 292.462 282.385 259.554 305.958 236.79Z" fill="url(#paint0_linear_110_2)" style="mix-blend-mode:lighten"/>
</g>
</g>
<defs>
<linearGradient id="paint0_linear_110_2" x1="379.822" y1="227.873" x2="294.467" y2="310.299" gradientUnits="userSpaceOnUse">
<stop offset="0.416667" stop-color="#D33847"/>
<stop offset="1" stop-color="#CF1124"/>
</linearGradient>
<clipPath id="clip0_110_2">
<rect width="601" height="601" fill="white"/>
</clipPath>
</defs>
</svg>
